<?xml version="1.0" encoding="UTF-8"?>
<svg width="120" height="40" viewBox="0 0 120 40" fill="none" xmlns="http://www.w3.org/2000/svg">
  <path d="M14.4 8H7.2v24h7.2c8.4 0 12-4.8 12-12S22.8 8 14.4 8zM14.4 28H11.2V12h3.2c5.6 0 8 3.2 8 8s-2.4 8-8 8z" fill="currentColor"/>
  <path d="M38.4 8h-4v24h14.4v-4H38.4V8zM68.8 8h-4L56 32h4.8l1.6-4.8h8l1.6 4.8h4.8L68.8 8zm-5.2 15.2L66.8 14l3.2 9.2h-6.4zM96 8H84v24h12c5.6 0 8.8-3.2 8.8-7.2 0-3.2-1.6-5.6-4-6.4 1.6-0.8 2.4-2.4 2.4-4.8C103.2 10.4 100.8 8 96 8zm-0.8 10.4H88V12h7.2c2.4 0 3.2 1.6 3.2 3.2s-0.8 3.2-3.2 3.2zm0.8 9.6H88v-6.4h8c2.4 0 4 1.6 4 3.2s-1.6 3.2-4 3.2z" fill="currentColor"/>
</svg> 